<svg xmlns="http://www.w3.org/2000/svg" width="16" height="16"><path d="M14.816 16H1.18C.53 16 0 15.482 0 14.845V1.154C0 .518.53 0 1.18 0h13.636C15.469 0 16 .518 16 1.154v13.691C16 15.482 15.47 16 14.816 16ZM6.236 6v7.635l2.369.001V9.857c0-.97.17-1.961 1.423-1.961 1.234 0 1.234 1.17 1.234 2.024v3.714h2.372V9.445c0-1.889-.345-3.637-2.847-3.637-1.175 0-1.944.664-2.245 1.233h-.033V5.999H6.235Zm-3.866 0v7.635h2.375V6H2.37Zm1.19-3.797c-.76 0-1.378.618-1.378 1.376A1.378 1.378 0 1 0 3.56 2.202Z" fill="#f43319" fill-rule="evenodd" data-name="Icon"/></svg>